<?xml version="1.0" standalone="no"?><!DOCTYPE svg PUBLIC "-//W3C//DTD SVG 1.1//EN" "http://www.w3.org/Graphics/SVG/1.1/DTD/svg11.dtd"><svg t="1530350142809" class="icon" style="" viewBox="0 0 1024 1024" version="1.1" xmlns="http://www.w3.org/2000/svg" p-id="3619" xmlns:xlink="http://www.w3.org/1999/xlink" width="200" height="200"><defs><style type="text/css">@font-face { font-family: SimSun; unicode-range: U+20-FFFF; src: local("Noto Serif CJK SC"); }
@font-face { font-family: 宋体; unicode-range: U+20-FFFF; src: local("Noto Serif CJK SC"); }
@font-face { font-family: NSimSun; unicode-range: U+20-FFFF; src: local("Noto Serif CJK SC"); }
@font-face { font-family: 新宋体; unicode-range: U+20-FFFF; src: local("Noto Serif CJK SC"); }
@font-face { font-family: Arial; unicode-range: U+20-FFFF; src: local("Neue Haas Unica W1G"); }
@font-face { font-family: Helvetica; unicode-range: U+20-FFFF; src: local("Neue Haas Grotesk Text Pro"); }
@font-face { font-family: Helvetica; unicode-range: U+20-FFFF; src: local("Neue Haas Grotesk Text Pro"); }
@font-face { font-family: "Helvetica Neue"; unicode-range: U+20-FFFF; src: local("Neue Haas Grotesk Text Pro"); }
@font-face { font-family: Tahoma; unicode-range: U+20-52F; src: local("Neue Haas Unica W1G"); }
@font-face { font-family: Verdana; unicode-range: U+20-52F; src: local("SF UI Text Regular"); }
@font-face { font-family: "PingFang SC"; unicode-range: U+20-52F; src: local("SF UI Text"); }
@font-face { font-family: "Courier New"; unicode-range: U+4E00-9FFF; src: local("XHei WP Mono"); }
@font-face { font-family: Courier; unicode-range: U+4E00-9FFF; src: local("XHei WP Mono"); }
@font-face { font-family: "Hiragino Sans GB"; unicode-range: U+2E80-FFFF; src: local("XHei WP"); }
@font-face { font-family: "MS PGothic"; unicode-range: U+2E80-FFFF; src: local("Inziu Roboto J"); }
@font-face { font-family: "ＭＳ Ｐゴシック"; unicode-range: U+2E80-FFFF; src: local("Inziu Roboto J"); }
@font-face { font-family: "MS PMincho"; unicode-range: U+2E80-FFFF; src: local("Noto Serif CJK J"); }
@font-face { font-family: "Microsoft JhengHei"; unicode-range: U+2E80-FFFF; src: local("Inziu Roboto TC"); }
@font-face { font-family: 微軟正黑; unicode-range: U+2E80-FFFF; src: local("Inziu Roboto TC"); }
@font-face { font-family: PMingLiU; unicode-range: U+2E80-FFFF; src: local("Noto Serif CJK TC"); }
@font-face { font-family: 新細明體; unicode-range: U+2E80-FFFF; src: local("Noto Serif CJK TC"); }
@font-face { font-family: MingLiU; unicode-range: U+2E80-FFFF; src: local("Noto Serif CJK TC"); }
@font-face { font-family: 細明體; unicode-range: U+2E80-FFFF; src: local("Noto Serif CJK TC"); }
</style></defs><path d="M1024.000341 512C1024.000341 229.6832 794.317141 0 512.000341 0S0.000341 229.6832 0.000341 512a508.9792 508.9792 0 0 0 85.981867 283.613867l-0.034133 0.3584 3.5328 5.1712c3.072 4.488533 6.382933 8.738133 9.591466 13.1072 1.297067 1.774933 2.577067 3.566933 3.908267 5.341866a516.625067 516.625067 0 0 0 80.9472 85.111467l4.2496 3.549867c5.085867 4.1472 10.222933 8.209067 15.4624 12.151466 2.116267 1.604267 4.266667 3.157333 6.4 4.727467 4.983467 3.652267 9.966933 7.2704 15.086933 10.734933 2.730667 1.860267 5.563733 3.601067 8.328534 5.410134 7.099733 4.608 14.267733 9.0624 21.572266 13.294933 5.085867 2.9696 10.1888 5.922133 15.394134 8.721067 3.140267 1.6896 6.3488 3.259733 9.5232 4.881066a490.9568 490.9568 0 0 0 45.1584 20.360534c2.065067 0.8192 4.113067 1.655467 6.1952 2.4576 18.312533 6.929067 37.12 12.868267 56.354133 17.681066 0.785067 0.2048 1.5872 0.3584 2.372267 0.546134a510.976 510.976 0 0 0 25.7536 5.597866c2.304 0.443733 4.608 0.836267 6.912 1.245867l1.006933 0.170667-0.0512 0.341333 9.0112 1.262933c2.048 0.324267 4.096 0.5632 6.144 0.853334l1.877333 0.256 1.058134 0.1024 2.781866 0.3584c2.798933 0.375467 5.5808 0.733867 8.379734 1.0752 6.775467 0.785067 13.585067 1.399467 20.445866 1.911466 1.4336 0.1024 2.8672 0.273067 4.283734 0.375467l4.932266 0.324267c9.762133 0.546133 19.5584 0.904533 29.44 0.904533a525.192533 525.192533 0 0 0 34.491734-1.245867c1.4336-0.1024 2.8672-0.273067 4.317866-0.375466 6.792533-0.512 13.568-1.1264 20.292267-1.8944 2.798933-0.324267 5.597867-0.699733 8.379733-1.0752l3.310934-0.426667c0.341333-0.0512 0.699733-0.068267 1.041066-0.1024l1.723734-0.238933c1.928533-0.273067 3.874133-0.512 5.7856-0.8192l9.5744-1.348267-0.0512-0.3584 0.4608-0.085333c2.304-0.4096 4.608-0.802133 6.912-1.245867a510.976 510.976 0 0 0 25.7536-5.597867l2.372266-0.546133a507.067733 507.067733 0 0 0 56.354134-17.681067c2.082133-0.785067 4.1472-1.6384 6.229333-2.4576a531.9168 531.9168 0 0 0 28.381867-12.1344c5.649067-2.628267 11.229867-5.376 16.759466-8.209066 3.191467-1.621333 6.382933-3.208533 9.5232-4.881067 5.205333-2.798933 10.2912-5.751467 15.394134-8.721067 7.304533-4.2496 14.4896-8.686933 21.572266-13.294933 2.781867-1.809067 5.597867-3.549867 8.328534-5.410133 5.102933-3.464533 10.103467-7.082667 15.086933-10.734934 2.133333-1.570133 4.283733-3.1232 6.4-4.727466 5.2224-3.9424 10.376533-8.004267 15.4624-12.151467l4.2496-3.549867a513.5872 513.5872 0 0 0 80.930133-85.111466c1.3312-1.757867 2.594133-3.549867 3.908267-5.341867 3.208533-4.369067 6.519467-8.618667 9.591467-13.1072l3.5328-5.1712-0.034134-0.3584A509.013333 509.013333 0 0 0 1024.000341 512z m-34.133333 0c0 84.855467-22.340267 164.5568-61.2864 233.710933a232.618667 232.618667 0 0 0-204.544-164.5568L723.388075 580.266667h-119.808a6.2464 6.2464 0 0 1-6.2464-6.229334v-11.008c0-3.1232 2.542933-5.1712 4.7104-6.007466 109.892267-41.3184 178.432-212.718933 164.061866-332.5952-7.492267-62.429867-38.4-118.2208-83.336533-158.634667C862.157141 134.690133 989.867008 308.667733 989.867008 512z m-93.218133 283.136l-4.164267 5.546667c-3.805867 5.000533-7.645867 9.966933-11.639467 14.813866l-1.245866 1.467734a483.208533 483.208533 0 0 1-44.561067 46.813866c-0.938667 0.8704-1.877333 1.757867-2.833067 2.6112-4.727467 4.283733-9.5744 8.448-14.472533 12.544l-4.642133 3.805867c-4.7616 3.874133-9.557333 7.68-14.455467 11.3664-1.655467 1.245867-3.362133 2.423467-5.034667 3.652267-2.816 2.065067-5.666133 4.061867-8.533333 6.058666V819.2h-34.133333v106.376533l-2.013867 1.160534c-4.352 2.491733-8.704 4.9664-13.124267 7.304533-3.0208 1.604267-6.0928 3.157333-9.1648 4.7104-5.154133 2.594133-10.3424 5.102933-15.581866 7.509333-2.56 1.1776-5.102933 2.3552-7.68 3.4816-6.570667 2.8672-13.2096 5.597867-19.899734 8.174934-1.3824 0.529067-2.730667 1.109333-4.113066 1.621333-17.066667 6.382933-34.5088 11.810133-52.2752 16.213333-1.28 0.324267-2.577067 0.580267-3.857067 0.887467-7.355733 1.757867-14.762667 3.362133-22.2208 4.7616l-5.256533 0.938667L565.965141 785.066667H580.267008v-42.069334l76.305067 50.858667 71.2192-178.039467a198.570667 198.570667 0 0 1 174.882133 170.871467c-1.9968 2.833067-3.959467 5.666133-6.024533 8.448zM400.759808 976.657067l-3.84-0.887467a480.3072 480.3072 0 0 1-52.292267-16.213333c-1.3824-0.512-2.747733-1.092267-4.113066-1.621334a481.0752 481.0752 0 0 1-19.882667-8.174933c-2.577067-1.1264-5.137067-2.304-7.697067-3.4816a483.771733 483.771733 0 0 1-15.581866-7.509333c-3.072-1.553067-6.144-3.089067-9.1648-4.7104-4.420267-2.338133-8.772267-4.829867-13.124267-7.304534l-2.013867-1.160533V819.2h-34.133333v84.616533a593.578667 593.578667 0 0 1-8.533333-6.058666c-1.672533-1.2288-3.3792-2.4064-5.034667-3.652267a490.769067 490.769067 0 0 1-14.4384-11.349333l-4.676267-3.822934a438.613333 438.613333 0 0 1-14.4384-12.526933c-0.9728-0.8704-1.911467-1.774933-2.8672-2.645333a480.785067 480.785067 0 0 1-44.544-46.7968l-1.245866-1.467734a487.8848 487.8848 0 0 1-11.639467-14.813866c-1.399467-1.8432-2.798933-3.6864-4.164267-5.546667-2.048-2.781867-4.010667-5.614933-6.007466-8.448a198.587733 198.587733 0 0 1 174.882133-170.871467l71.2192 178.039467L443.733675 742.997333V785.066667h14.336l-29.354667 197.393066c-1.911467-0.341333-3.822933-0.6656-5.717333-1.024a485.546667 485.546667 0 0 1-22.237867-4.778666z m34.286933-451.157334C353.433941 495.3088 290.133675 355.84 290.133675 256c0-2.184533 0.256-4.317867 0.324266-6.485333l12.4928-15.4112c28.177067-33.518933 76.270933-43.1104 119.671467-23.893334A135.185067 135.185067 0 0 0 477.867008 221.866667a135.7824 135.7824 0 0 0 119.944533-71.406934c54.306133 17.834667 102.775467 51.456 135.560534 93.832534 5.000533 104.106667-56.2176 248.029867-143.325867 280.7808-16.315733 6.144-26.845867 21.0432-26.845867 37.956266v11.008a40.448 40.448 0 0 0 32.494934 39.5776L566.579541 648.533333h-109.1584l-29.115733-34.935466A40.413867 40.413867 0 0 0 460.800341 574.037333V563.2c0-16.827733-10.325333-31.982933-25.7536-37.700267zM512.683008 34.167467h0.5632c8.3456 0.0512 16.554667 0.512 24.405333 1.416533 84.6336 9.437867 155.7504 68.352 183.5008 146.5856a329.472 329.472 0 0 0-127.9488-68.727467l-14.677333-4.027733-5.6832 14.097067A102.007467 102.007467 0 0 1 477.867008 187.733333a101.614933 101.614933 0 0 1-41.4208-8.721066c-47.2064-20.8896-98.747733-15.240533-136.823467 12.458666a220.791467 220.791467 0 0 1 55.6544-92.501333c41.8816-41.796267 97.501867-64.802133 157.405867-64.802133zM580.267008 685.431467L639.471275 614.4h52.1216l-51.080534 127.726933L580.267008 701.986133v-16.554666z m-27.904 302.523733c-4.608 0.392533-9.233067 0.836267-13.806933 1.109333-8.772267 0.477867-17.595733 0.802133-26.436267 0.802134l-1.757867-0.0512a476.859733 476.859733 0 0 1-24.746666-0.750934c-4.5056-0.256-9.045333-0.699733-13.585067-1.0752-3.1744-0.273067-6.331733-0.529067-9.489067-0.8704L492.578475 785.066667h38.8608l30.481066 202.018133c-3.1744 0.324267-6.365867 0.597333-9.557333 0.8704zM546.133675 750.933333h-68.266667v-68.266666h68.266667v68.266666z m-102.4-65.501866v16.554666l-60.228267 40.157867L332.424875 614.4h52.1216L443.733675 685.431467zM341.026475 65.877333c-3.293867 2.9696-6.690133 5.768533-9.864534 8.925867A254.293333 254.293333 0 0 0 256.000341 256c0 113.134933 71.509333 266.120533 167.202134 301.499733 2.030933 0.768 3.464533 3.106133 3.464533 5.700267v10.837333a6.2464 6.2464 0 0 1-6.229333 6.229334h-110.762667c-1.6384 0-3.259733 0.238933-4.795733 0.6656a232.618667 232.618667 0 0 0-209.442134 164.795733A474.7776 474.7776 0 0 1 34.133675 512C34.133675 308.736 161.758208 134.826667 341.026475 65.877333z" fill="#515151" p-id="3620"></path></svg>